<?xml version="1.0" encoding="UTF-8"?>
<svg width="80" height="80" viewBox="0 0 80 80" fill="none" xmlns="http://www.w3.org/2000/svg">
  <path d="M60 20H20L16 60H64L60 20Z" stroke="#CCCCCC" stroke-width="2" stroke-linecap="round" stroke-linejoin="round"/>
  <path d="M24 20C24 13.373 29.373 8 36 8H44C50.627 8 56 13.373 56 20" stroke="#CCCCCC" stroke-width="2" stroke-linecap="round" stroke-linejoin="round"/>
  <path d="M28 28L32 48" stroke="#CCCCCC" stroke-width="2" stroke-linecap="round"/>
  <path d="M52 28L48 48" stroke="#CCCCCC" stroke-width="2" stroke-linecap="round"/>
  <path d="M36 28L38 48" stroke="#CCCCCC" stroke-width="2" stroke-linecap="round"/>
  <path d="M44 28L42 48" stroke="#CCCCCC" stroke-width="2" stroke-linecap="round"/>
  <path d="M22 68C24.2091 68 26 66.2091 26 64C26 61.7909 24.2091 60 22 60C19.7909 60 18 61.7909 18 64C18 66.2091 19.7909 68 22 68Z" fill="#CCCCCC"/>
  <path d="M58 68C60.2091 68 62 66.2091 62 64C62 61.7909 60.2091 60 58 60C55.7909 60 54 61.7909 54 64C54 66.2091 55.7909 68 58 68Z" fill="#CCCCCC"/>
</svg> 