<svg width="25" height="25" viewBox="0 0 25 25" fill="none" xmlns="http://www.w3.org/2000/svg">
<g clip-path="url(#clip0_1008_1385)">
<path d="M12.1595 11.7484C13.7478 11.7484 15.1231 11.1787 16.2468 10.0548C17.3705 8.93112 17.9402 7.55618 17.9402 5.96775C17.9402 4.37987 17.3705 3.00475 16.2466 1.88067C15.1227 0.757139 13.7476 0.1875 12.1595 0.1875C10.5711 0.1875 9.19617 0.757139 8.07245 1.88085C6.94873 3.00457 6.37891 4.37968 6.37891 5.96775C6.37891 7.55618 6.94873 8.9313 8.07263 10.055C9.19653 11.1785 10.5717 11.7484 12.1595 11.7484Z" fill="black"/>
<path d="M22.2756 18.6416C22.2432 18.174 22.1776 17.6639 22.0811 17.1252C21.9837 16.5824 21.8583 16.0694 21.7081 15.6004C21.553 15.1158 21.3421 14.6371 21.0814 14.1785C20.8107 13.7024 20.4929 13.2878 20.1362 12.9467C19.7632 12.5898 19.3065 12.3029 18.7784 12.0936C18.2522 11.8854 17.669 11.78 17.0452 11.78C16.8002 11.78 16.5632 11.8805 16.1057 12.1784C15.824 12.3621 15.4946 12.5745 15.127 12.8094C14.8126 13.0097 14.3867 13.1974 13.8606 13.3673C13.3474 13.5334 12.8262 13.6176 12.3119 13.6176C11.7975 13.6176 11.2766 13.5334 10.7628 13.3673C10.2373 13.1976 9.8114 13.0099 9.49738 12.8096C9.13318 12.5768 8.80359 12.3644 8.51776 12.1782C8.06073 11.8803 7.82361 11.7798 7.57861 11.7798C6.95459 11.7798 6.37158 11.8854 5.84552 12.0938C5.31781 12.3027 4.86096 12.5897 4.48761 12.9469C4.1311 13.2882 3.81305 13.7026 3.54279 14.1785C3.28223 14.6371 3.07129 15.1156 2.91602 15.6006C2.76605 16.0696 2.64062 16.5824 2.54321 17.1252C2.44672 17.6631 2.38116 18.1734 2.34875 18.6422C2.31689 19.1014 2.30078 19.578 2.30078 20.0594C2.30078 21.3122 2.69904 22.3264 3.48438 23.0744C4.26001 23.8125 5.28632 24.187 6.53436 24.187H18.0905C19.3386 24.187 20.3645 23.8127 21.1403 23.0744C21.9258 22.327 22.3241 21.3126 22.3241 20.0592C22.3239 19.5757 22.3076 19.0987 22.2756 18.6416Z" fill="black"/>
</g>
<defs>
<clipPath id="clip0_1008_1385">
<rect width="24" height="24" fill="white" transform="translate(0.332031 0.1875)"/>
</clipPath>
</defs>
</svg>
