<svg width="23" height="25" viewBox="0 0 23 25" fill="none" xmlns="http://www.w3.org/2000/svg">
<path d="M7.52058 7.37605C8.0854 7.37605 8.54752 6.91393 8.54752 6.34912V5.32218C8.54752 3.61747 9.92361 2.24137 11.6283 2.24137C13.333 2.24137 14.7091 3.61747 14.7091 5.32218V6.34912C14.7091 6.91393 15.1713 7.37605 15.7361 7.37605C16.3009 7.37605 16.763 6.91393 16.763 6.34912V5.32218C16.763 2.48784 14.4627 0.1875 11.6283 0.1875C8.79398 0.1875 6.49365 2.48784 6.49365 5.32218V6.34912C6.49365 6.91393 6.95577 7.37605 7.52058 7.37605ZM11.6283 15.5915C8.79398 15.5915 6.49365 13.2912 6.49365 10.4569C6.49365 9.89205 6.95577 9.42992 7.52058 9.42992C8.0854 9.42992 8.54752 9.89205 8.54752 10.4569C8.54752 12.1616 9.92361 13.5377 11.6283 13.5377C13.333 13.5377 14.7091 12.1616 14.7091 10.4569C14.7091 9.89205 15.1713 9.42992 15.7361 9.42992C16.3009 9.42992 16.763 9.89205 16.763 10.4569C16.763 13.2912 14.4627 15.5915 11.6283 15.5915ZM22.9246 18.5697L21.8977 8.40299C21.8977 6.69827 20.5216 5.32218 18.8169 5.32218H4.43977C2.77614 5.31191 1.41031 6.63666 1.35897 8.30029L0.332031 18.6723C0.332031 22.0715 3.09449 24.834 6.49365 24.834H16.763C20.1827 24.8237 22.9349 22.0407 22.9246 18.621C22.9246 18.6107 22.9246 18.5902 22.9246 18.5697Z" fill="black"/>
</svg>
